<?xml version="1.0" encoding="utf-8"?>
<!-- Generator: Adobe Illustrator 27.8.0, SVG Export Plug-In . SVG Version: 6.00 Build 0)  -->
<svg version="1.1" id="Livello_1" xmlns="http://www.w3.org/2000/svg" xmlns:xlink="http://www.w3.org/1999/xlink" x="0px" y="0px"
	 viewBox="0 0 2150 1080" style="enable-background:new 0 0 2150 1080;" xml:space="preserve">
<style type="text/css">
	.st0{fill:#FFDD00;}
	.st1{fill:#BCBBBB;}
	.st2{fill:#FFFFFF;}
	.st3{fill:#514747;}
	.st4{fill:#00DBB6;}
	.st5{fill:#FF0031;}
	.st6{fill:#FFD506;}
	.st7{fill:#71C1A9;}
	.st8{fill:#E51743;}
</style>
<rect x="0" y="0" width="2150" height="1080"/>
<g>
	<g>
		<path class="st2" d="M366,772.7c15.2,0,28.4,7.2,35.7,18.5l-7.6,6c-6.6-9.5-16.1-15.1-28-15.1c-19.4,0-34.2,15.1-34.2,35
			s14.8,35,34.2,35c11.8,0,21.4-5.6,28-15.1l7.6,6c-7.2,11.3-20.4,18.5-35.7,18.5c-24.3,0.4-45.2-19.8-44.7-44.4
			C320.8,792.4,341.6,772.3,366,772.7z"/>
		<path class="st2" d="M484.8,860L458.1,824h-18.4V860h-10.2v-85.9h30.2c16.7,0,27.5,10.4,27.5,24.9c0,11.6-6.8,20.6-18.1,23.8
			l27.5,37.2H484.8z M439.8,814.8h19.7c11.1,0,17.3-6.2,17.3-15.8c0-9.4-6.4-15.9-17.3-15.9h-19.7V814.8z"/>
		<path class="st2" d="M520.3,774.1h55.1v9.1h-44.9v26.3h34.4v9.1h-34.4v32.3H577v9.1h-56.6V774.1z"/>
		<path class="st2" d="M658.1,842.6H616l-7.3,17.4H598l37.2-87.4h3.8l37.2,87.4h-10.8L658.1,842.6z M637.1,791.1l-17.2,42.3h34.4
			L637.1,791.1z"/>
		<path class="st2" d="M709.6,783.2h-30.2v-9.1h70.7v9.1h-30.3V860h-10.2V783.2z"/>
		<path class="st2" d="M773.5,774.1h10.2V860h-10.2V774.1z"/>
		<path class="st2" d="M885.7,774.1l-37.2,87.4h-3.8l-37.2-87.4h11.2l28,67.4l27.9-67.4H885.7z"/>
		<path class="st2" d="M909.8,774.1h55.1v9.1h-44.9v26.3h34.4v9.1h-34.4v32.3h46.5v9.1h-56.6V774.1z"/>
		<path class="st2" d="M1125,772.7V860h-10.2v-61.6l-27.5,37.2h-3.6l-27.6-37.5V860h-10.2v-87.4h3.6l35.8,49.6l36.1-49.6H1125z"/>
		<path class="st2" d="M1209.2,842.6H1167l-7.3,17.4h-10.7l37.2-87.4h3.8l37.2,87.4h-10.8L1209.2,842.6z M1188.1,791.1l-17.2,42.3
			h34.4L1188.1,791.1z"/>
		<path class="st2" d="M1306.6,860l-26.7-36.1h-18.4V860h-10.2v-85.9h30.2c16.7,0,27.5,10.4,27.5,24.9c0,11.6-6.8,20.6-18.1,23.8
			l27.5,37.2H1306.6z M1261.6,814.8h19.7c11.1,0,17.3-6.2,17.3-15.8c0-9.4-6.4-15.9-17.3-15.9h-19.7V814.8z"/>
		<path class="st2" d="M1342.1,774.1h10.2V860h-10.2V774.1z M1408.6,860h-12.9l-42.3-46.1l38.7-39.8h13l-38.4,39.8L1408.6,860z"/>
		<path class="st2" d="M1432.7,774.1h55.1v9.1h-44.9v26.3h34.4v9.1h-34.4v32.3h46.5v9.1h-56.6V774.1z"/>
		<path class="st2" d="M1539,783.2h-30.2v-9.1h70.7v9.1h-30.3V860H1539V783.2z"/>
		<path class="st2" d="M1602.8,774.1h10.2V860h-10.2V774.1z"/>
		<path class="st2" d="M1715.7,774.1v87.4h-3.6l-54.7-65.9V860h-10.2v-87.4h3.6l54.7,66v-64.6H1715.7z"/>
		<path class="st2" d="M1789.4,772.7c14.6,0,27.1,6.5,35,17.6l-7.7,6c-6.6-9-15.9-14.2-27.3-14.2c-19.5-0.4-34.5,15.5-34.1,34.9
			c-0.4,19.7,14.8,35.8,34.6,35.4c12.5,0,22.8-6,28.6-15.4v-11.6h-29.3v-9.1h39.4v22.9c-3.8,6.8-9.2,12.2-16.3,16.3
			c-6.9,4-14.6,6-23,6c-24.6,0.4-45-19.8-44.7-44.4C1744.3,792.4,1764.8,772.3,1789.4,772.7z"/>
	</g>
	<g>
		<path class="st3" d="M614.1,445.3c0.2-13-0.6-25.6-2.4-37.8l-135.3-26c11.1,18.7,16.6,40.2,16.6,64.7c0,33.9-10.7,62-32,84.2
			c-21.3,22.2-48.1,33.3-80.2,33.3c-32.8,0-59.6-11.1-80.7-33.3c-21.1-22.2-31.6-50.3-31.6-84.2c0-34.5,10.5-63,31.6-85.5
			c3.7-4,7.6-7.6,11.7-10.8l-129.3-24.9c1.1-1.7,2.3-3.5,3.5-5.2c-25.9,37-38.5,78.9-37.6,125.5c-1.2,62,21.2,115.6,67.1,160.9
			c45.9,45.3,100.7,67.4,164.4,66.2c63.7,1.2,119-20.9,165.8-66.2C592.5,560.9,615.3,507.3,614.1,445.3z"/>
		<g>
			<polygon class="st3" points="1726.2,622.3 1726.2,622.3 1607.9,599.6 1607.9,599.5 1607.8,599.5 1607.8,672 1726.3,672 
				1726.3,622.3 			"/>
			<path class="st3" d="M1957.4,266.3c-29.5-31.6-69.4-47.3-119.7-47.3c-59.6,0-107.9,20.8-144.7,62.3
				c-29.2-41.5-72.2-62.3-128.9-62.3c-51.5,0-92.4,16.1-122.8,48.2v-38.6h-108.8v56.7l0,0l145.2,58.9c14-12.1,31.6-18.2,53.1-18.2
				c23.4,0,42.1,7.6,56.1,22.8c11.5,12.5,18.3,28.5,20.4,48l0,0l0,0c0,0,0,0,0-0.1l119,48.3l0.1,0v-37.6c0-24,7.5-43.6,22.4-58.8
				c14.9-15.2,34.1-22.8,57.4-22.8c23.4,0,42.1,7.6,56.1,22.8c14,15.2,21.1,35.7,21.1,61.4v76.7c0,0,65.3,16.8,76.3,20.3
				c20.1,5.5,34.1,14.8,42.1,25V393.5C2001.7,340.3,1986.9,297.9,1957.4,266.3z"/>
		</g>
		<g>
			<path class="st3" d="M1323.2,544.7C1323.2,544.7,1323.2,544.7,1323.2,544.7l-122.7-23.5c-2.5,3.2-5.1,6.2-7.9,9.2
				c-21.4,22.2-48.1,33.3-80.3,33.3c-32.7,0-59.6-11.1-80.7-33.3c-12.8-13.5-21.7-29.1-26.7-47L893.7,462l-4.5-0.9L612,407.7
				c3.7,6.2,8,12.1,13.1,17.5c18.7,20.2,48.8,38.7,90.3,55.7l46.5,19.3c17.5,7.6,29.4,13.9,35.5,18.9c6.1,5,9.2,11.8,9.2,20.6
				c0,11.7-5.1,20.6-15.3,26.8c-10.2,6.1-23.5,9.2-39.9,9.2c-39.8,0-77-16.1-111.5-48.4l-50.6,84.2c40.4,41,93.9,61.5,160.4,61.5
				c49.1,0,89.5-12.3,121-36.8c23.3-17.8,38.1-40.4,44.6-68c8.9,13.3,19.5,26,31.7,38.1c45.9,45.3,100.7,67.4,164.5,66.2
				c63.7,1.2,119-20.9,165.8-66.2c19.6-19,35-39.5,46.2-61.5L1323.2,544.7z"/>
			<polygon class="st3" points="1332.4,546.5 1332.4,672 1450.9,672 1450.9,569.3 1399.8,559.4 			"/>
		</g>
	</g>
	<path class="st0" d="M1984.7,646.2c11.3-11.1,17-25.1,17-42c0-16.9-5.7-31-17-42.4c-11.3-11.4-25.5-17-42.5-17
		c-17.4,0-31.6,5.6-42.8,16.8c-11.2,11.2-16.7,25.4-16.7,42.6c0,16.9,5.6,30.9,16.7,42c11.2,11.1,25.4,16.6,42.8,16.6
		C1959.2,662.8,1973.4,657.3,1984.7,646.2z"/>
	<g>
		<path class="st2" d="M1332.5,366.2c-11.2-29.6-29.4-56.9-54.9-81.5c-46.5-45-101.5-67-165.3-65.8c-63.6-1.1-118.7,20.8-164.8,65.8
			c-46.3,45-68.8,98.6-67.5,160.5v3.2c-19.2-16.4-46.9-32-82.9-46.5l-42-17.5c-17.7-7.1-29.6-13.2-36.1-18.4
			c-6.3-5.4-9.7-12.1-9.7-20.3c0-20.5,15.6-30.7,46.5-30.7c35.7,0,68.3,13.8,97.5,41.3l49.5-83.1c-38.3-36.5-87-54.7-146-54.7
			c-48,0-86.5,11.7-115.7,34.8c-29.4,23.1-43.9,54.7-43.9,95c0,2.8,0,5.8,0.2,8.4c-11.5-26-28.5-50-51.1-72
			c-46.5-45-101.5-67-165.3-65.8c-63.8-1.1-118.7,20.8-164.8,65.8c-13,12.6-24.4,26-33.5,40.2l129.4,24.9
			c19-15.4,41.8-23.1,68.8-23.1c32.2,0,59,11.5,80.4,34.2c5.9,6.3,11,13.2,15.2,20.5l135.4,26l0.4,0.2l268,51.5l13.6,2.8l111.2,21.4
			c-3.2-11.5-4.8-24-4.8-37.2c0-34.6,10.4-63,31.4-85.6c21.2-22.5,48-33.9,80.7-33.9c32.2,0,59,11.5,80.4,34.2
			c21.4,22.9,32,51.1,32,85.2c0,29.4-8,54.3-24.2,75l122.8,23.6c3.7-6.7,6.7-13.8,9.3-20.8v22.5l118.5,22.9V410.1
			c0-25.7,7.3-46.1,21.9-61.4c1.5-1.7,3.2-3.2,4.8-4.5l-145.3-59V366.2z"/>
		<path class="st2" d="M1607.2,396.7c0.6,4.3,0.7,8.7,0.7,13.4v189.5l118.3,22.7V445.1L1607.2,396.7z"/>
	</g>
</g>
</svg>
