<svg xmlns="http://www.w3.org/2000/svg" viewBox="0 0 927.6 900">
<rect width="927.6" height="900" fill="#000"/>
<g>
  <g>
    <polygon fill="#514747" points="548.6,617 430.3,594.3 430.2,594.2 430.2,666.7 548.6,666.7"/>
    <path fill="#514747" d="M779.7,261.1c-29.5-31.6-69.4-47.3-119.7-47.3c-59.6,0-107.9,20.8-144.7,62.3c-29.2-41.5-72.2-62.3-128.9-62.3c-51.5,0-92.4,16.1-122.8,48.2v-38.6H154.8V280L300,338.9c14-12.1,31.6-18.2,53.1-18.2c23.4,0,42.1,7.6,56.1,22.8c11.5,12.5,18.3,28.5,20.4,48l119,48.3v-37.6c0-24,7.5-43.6,22.4-58.8c14.9-15.2,34.1-22.8,57.4-22.8c23.4,0,42.1,7.6,56.1,22.8c14,15.2,21.1,35.7,21.1,61.4v76.7l76.3,20.3c20.1,5.5,34.1,14.8,42.1,25V388.2C824,335,809.3,292.6,779.7,261.1z"/>
    <polygon fill="#514747" points="154.8,541.2 154.8,666.7 273.2,666.7 273.2,564 222.2,554.2"/>
  </g>
  <path fill="#FFDD00" d="M807.1,640.9c11.3-11.1,17-25.1,17-42c0-16.9-5.7-31-17-42.4c-11.3-11.4-25.5-17-42.5-17c-17.4,0-31.6,5.6-42.8,16.8c-11.2,11.2-16.7,25.4-16.7,42.6c0,16.9,5.6,30.9,16.7,42c11.2,11.1,25.4,16.6,42.8,16.6C781.6,657.5,795.8,652,807.1,640.9z"/>
</g>
<g>
  <path fill="#FFF" d="M429.5,391.4c0.6,4.3,0.7,8.7,0.7,13.4v189.5L548.6,617V439.8L429.5,391.4z"/>
  <path fill="#FFF" d="M154.8,280v80.9v157.7v22.5L273.3,564V404.8c0-25.7,7.3-46.1,21.9-61.4c1.5-1.7,3.2-3.2,4.8-4.5L154.8,280z"/>
</g>
</svg>
