<?xml version="1.0" encoding="utf-8"?>
<!-- Generator: Adobe Illustrator 27.8.0, SVG Export Plug-In . SVG Version: 6.00 Build 0)  -->
<svg version="1.1" id="Livello_1" xmlns="http://www.w3.org/2000/svg" xmlns:xlink="http://www.w3.org/1999/xlink" x="0px" y="0px"
	 viewBox="0 0 2455.3 1700" style="enable-background:new 0 0 2455.3 1700;" xml:space="preserve">
<style type="text/css">
	.st0{fill:#FFDD00;}
	.st1{fill:#BCBBBB;}
	.st2{fill:#FFFFFF;}
	.st3{fill:#514747;}
	.st4{fill:#00DBB6;}
	.st5{fill:#FF0031;}
	.st6{fill:#FFD506;}
	.st7{fill:#71C1A9;}
	.st8{fill:#E51743;}
	.st9{font-family:'CeraPro-Regular';}
	.st10{font-size:111.1915px;}
	.st11{letter-spacing:-2;}
	.st12{font-family:'MyriadPro-Regular';}
	.st13{font-size:96.2357px;}
</style>
<g>
	<path d="M638.9,801.9c48.2-47.2,72.3-106.8,72.3-178.9c0-72-24.1-132.3-72.3-180.7c-48.2-48.5-108.7-72.7-181.3-72.7
		c-74,0-134.8,23.9-182.3,71.7S203.9,549.7,203.9,623c0,72.1,23.8,131.7,71.4,178.9c47.6,47.2,108.3,70.8,182.3,70.8
		C530.2,872.7,590.7,849.1,638.9,801.9z"/>
	<path class="st1" d="M2179.1,801.9c48.2-47.2,72.3-106.8,72.3-178.9c0-72-24.1-132.3-72.3-180.7c-48.2-48.5-108.7-72.7-181.3-72.7
		c-74,0-134.8,23.9-182.3,71.7c-47.6,47.8-71.4,108.4-71.4,181.7c0,72.1,23.8,131.7,71.4,178.9c47.6,47.2,108.3,70.8,182.3,70.8
		C2070.4,872.7,2130.8,849.1,2179.1,801.9z"/>
	<path class="st3" d="M1409,801.9c48.2-47.2,72.3-106.8,72.3-178.9c0-72-24.1-132.3-72.3-180.7c-48.2-48.5-108.7-72.7-181.3-72.7
		c-74,0-134.8,23.9-182.3,71.7C997.8,489.2,974,549.7,974,623c0,72.1,23.8,131.7,71.4,178.9c47.6,47.2,108.3,70.8,182.3,70.8
		C1300.3,872.7,1360.8,849.1,1409,801.9z"/>
	<path class="st6" d="M638.9,1461.2c48.2-47.2,72.3-106.8,72.3-178.9c0-72-24.1-132.3-72.3-180.7c-48.2-48.5-108.7-72.7-181.3-72.7
		c-74,0-134.8,23.9-182.3,71.7c-47.6,47.8-71.4,108.4-71.4,181.7c0,72.1,23.8,131.7,71.4,178.9c47.6,47.2,108.3,70.8,182.3,70.8
		C530.2,1532,590.7,1508.4,638.9,1461.2z"/>
	<path class="st7" d="M1409,1461.2c48.2-47.2,72.3-106.8,72.3-178.9c0-72-24.1-132.3-72.3-180.7c-48.2-48.5-108.7-72.7-181.3-72.7
		c-74,0-134.8,23.9-182.3,71.7c-47.6,47.8-71.4,108.4-71.4,181.7c0,72.1,23.8,131.7,71.4,178.9c47.6,47.2,108.3,70.8,182.3,70.8
		C1300.3,1532,1360.8,1508.4,1409,1461.2z"/>
	<path class="st8" d="M2179.1,1461.2c48.2-47.2,72.3-106.8,72.3-178.9c0-72-24.1-132.3-72.3-180.7c-48.2-48.5-108.7-72.7-181.3-72.7
		c-74,0-134.8,23.9-182.3,71.7c-47.6,47.8-71.4,108.4-71.4,181.7c0,72.1,23.8,131.7,71.4,178.9c47.6,47.2,108.3,70.8,182.3,70.8
		C2070.4,1532,2130.8,1508.4,2179.1,1461.2z"/>
</g>
<text transform="matrix(1 0 0 1 234.2918 653.8599)" class="st2 st9 st10 st11">#000000</text>
<text transform="matrix(1 0 0 1 1050.032 653.8599)" class="st2 st9 st10 st11">#514747</text>
<text transform="matrix(1 0 0 1 1774.4917 653.8599)" class="st2 st9 st10 st11">#bcbbbb</text>
<text transform="matrix(1 0 0 1 279.2893 1313.1064)" class="st2 st9 st10 st11">#ffd507</text>
<text transform="matrix(1 0 0 1 1044.95 1313.1064)" class="st2 st9 st10 st11">#70c1a9</text>
<text transform="matrix(1 0 0 1 1807.22 1313.1064)" class="st2 st9 st10 st11">#e51442</text>
<text transform="matrix(1 0 0 1 1007.0452 219.6987)" class="st12 st13">impression</text>
</svg>
