<?xml version="1.0" encoding="utf-8"?>
<!-- Generator: Adobe Illustrator 27.8.0, SVG Export Plug-In . SVG Version: 6.00 Build 0)  -->
<svg version="1.1" id="Livello_1" xmlns="http://www.w3.org/2000/svg" xmlns:xlink="http://www.w3.org/1999/xlink" x="0px" y="0px"
	 viewBox="0 0 2900 900" style="enable-background:new 0 0 2900 900;" xml:space="preserve">
<style type="text/css">
	.st0{fill:#FFDD00;}
	.st1{fill:#BCBBBB;}
	.st2{fill:#FFFFFF;}
	.st3{fill:#514747;}
	.st4{fill:#00DBB6;}
	.st5{fill:#FF0031;}
	.st6{fill:#FFD506;}
	.st7{fill:#71C1A9;}
	.st8{fill:#E51743;}
</style>
<rect x="-0.1" width="2900.1" height="900.1"/>
<g>
	<g>
		<g>
			<path class="st3" d="M648.8,449.5c0.2-13-0.6-25.6-2.4-37.8l-135.3-26c11.1,18.7,16.6,40.2,16.6,64.7c0,33.9-10.7,62-32,84.2
				c-21.3,22.2-48.1,33.3-80.2,33.3c-32.8,0-59.6-11.1-80.7-33.3c-21.1-22.2-31.6-50.3-31.6-84.2c0-34.5,10.5-63,31.6-85.5
				c3.7-4,7.6-7.6,11.7-10.8l-129.3-24.9c1.1-1.7,2.3-3.5,3.5-5.2c-25.9,37-38.5,78.9-37.6,125.5c-1.2,62,21.2,115.6,67.1,160.9
				c45.9,45.3,100.7,67.4,164.4,66.2c63.7,1.2,119-20.9,165.8-66.2C627.2,565.2,650,511.5,648.8,449.5z"/>
			<g>
				<polygon class="st3" points="1760.9,626.6 1760.9,626.6 1642.6,603.9 1642.6,603.8 1642.6,603.8 1642.6,676.2 1761,676.2 
					1761,626.6 				"/>
				<path class="st3" d="M1992.1,270.6c-29.5-31.6-69.4-47.3-119.7-47.3c-59.6,0-107.9,20.8-144.7,62.3
					c-29.2-41.5-72.2-62.3-128.9-62.3c-51.5,0-92.4,16.1-122.8,48.2v-38.6h-108.8v56.7l0,0l145.2,58.9c14-12.1,31.6-18.2,53.1-18.2
					c23.4,0,42.1,7.6,56.1,22.8c11.5,12.5,18.3,28.5,20.4,48l0,0l0,0c0,0,0,0,0-0.1l119,48.3l0.1,0v-37.6c0-24,7.5-43.6,22.4-58.8
					c14.9-15.2,34.1-22.8,57.4-22.8c23.4,0,42.1,7.6,56.1,22.8c14,15.2,21.1,35.7,21.1,61.4v76.7c0,0,65.3,16.8,76.3,20.3
					c20.1,5.5,34.1,14.8,42.1,25V397.8C2036.4,344.6,2021.6,302.2,1992.1,270.6z"/>
			</g>
			<g>
				<path class="st3" d="M1357.9,548.9C1357.9,549,1357.9,549,1357.9,548.9l-122.7-23.5c-2.5,3.2-5.1,6.2-7.9,9.2
					c-21.4,22.2-48.1,33.3-80.3,33.3c-32.7,0-59.6-11.1-80.7-33.3c-12.8-13.5-21.7-29.1-26.7-47l-111.2-21.4l-4.5-0.9l-277.1-53.4
					c3.7,6.2,8,12.1,13.1,17.5c18.7,20.2,48.8,38.7,90.3,55.7l46.5,19.3c17.5,7.6,29.4,13.9,35.5,18.9c6.1,5,9.2,11.8,9.2,20.6
					c0,11.7-5.1,20.6-15.3,26.8c-10.2,6.1-23.5,9.2-39.9,9.2c-39.8,0-77-16.1-111.5-48.4L624,615.7c40.4,41,93.9,61.5,160.4,61.5
					c49.1,0,89.5-12.3,121-36.8c23.3-17.8,38.1-40.4,44.6-68c8.9,13.3,19.5,26,31.7,38.1c45.9,45.3,100.7,67.4,164.5,66.2
					c63.7,1.2,119-20.9,165.8-66.2c19.6-19,35-39.5,46.2-61.5L1357.9,548.9z"/>
				<polygon class="st3" points="1367.2,550.7 1367.2,676.2 1485.6,676.2 1485.6,573.5 1434.5,563.7 				"/>
			</g>
		</g>
		<path class="st0" d="M2019.4,650.4c11.3-11.1,17-25.1,17-42c0-16.9-5.7-31-17-42.4c-11.3-11.4-25.5-17-42.5-17
			c-17.4,0-31.6,5.6-42.8,16.8c-11.2,11.2-16.7,25.4-16.7,42.6c0,16.9,5.6,30.9,16.7,42c11.2,11.1,25.4,16.6,42.8,16.6
			C1993.9,667,2008.1,661.5,2019.4,650.4z"/>
		<g>
			<path class="st2" d="M1367.2,370.5c-11.2-29.6-29.4-56.9-54.9-81.5c-46.5-45-101.5-67-165.3-65.8
				c-63.6-1.1-118.7,20.8-164.8,65.8c-46.3,45-68.8,98.6-67.5,160.5v3.2c-19.2-16.4-46.9-32-82.9-46.5l-42-17.5
				c-17.7-7.1-29.6-13.2-36.1-18.4c-6.3-5.4-9.7-12.1-9.7-20.3c0-20.5,15.6-30.7,46.5-30.7c35.7,0,68.3,13.8,97.5,41.3l49.5-83.1
				c-38.3-36.5-87-54.7-146-54.7c-48,0-86.5,11.7-115.7,34.8c-29.4,23.1-43.9,54.7-43.9,95c0,2.8,0,5.8,0.2,8.4
				c-11.5-26-28.5-50-51.1-72c-46.5-45-101.5-67-165.3-65.8c-63.8-1.1-118.7,20.8-164.8,65.8c-13,12.6-24.4,26-33.5,40.2l129.4,24.9
				c19-15.4,41.8-23.1,68.8-23.1c32.2,0,59,11.5,80.4,34.2c5.9,6.3,11,13.2,15.2,20.5l135.4,26l0.4,0.2l268,51.5l13.6,2.8
				l111.2,21.4c-3.2-11.5-4.8-24-4.8-37.2c0-34.6,10.4-63,31.4-85.6c21.2-22.5,48-33.9,80.7-33.9c32.2,0,59,11.5,80.4,34.2
				c21.4,22.9,32,51.1,32,85.2c0,29.4-8,54.3-24.2,75l122.8,23.6c3.7-6.7,6.7-13.8,9.3-20.8v22.5l118.5,22.9V414.4
				c0-25.7,7.3-46.1,21.9-61.4c1.5-1.7,3.2-3.2,4.8-4.5l-145.3-59V370.5z"/>
			<path class="st2" d="M1641.9,401c0.6,4.3,0.7,8.7,0.7,13.4v189.5l118.3,22.7V449.3L1641.9,401z"/>
		</g>
	</g>
	<g>
		<path class="st5" d="M2019.4,650.4c11.3-11.1,17-25.1,17-42c0-16.9-5.7-31-17-42.4c-11.3-11.4-25.5-17-42.5-17
			c-17.4,0-31.6,5.6-42.8,16.8c-11.2,11.2-16.7,25.4-16.7,42.6c0,16.9,5.6,30.9,16.7,42c11.2,11.1,25.4,16.6,42.8,16.6
			C1993.9,667,2008.1,661.5,2019.4,650.4z"/>
		<g>
			<path class="st5" d="M2131.1,613.6c2,21.4,18.5,35.7,39.9,35.7c12.3,0,23.4-4.9,33.3-14.7l10,11.6c-11.4,11.8-26.3,19-43.5,19
				c-32.4,0-57.6-24.8-57.6-56.7c0-31.5,24.5-56.9,55.6-56.9c28.1,0,49.5,20.3,49.5,49.1c0,4.2-0.4,8.5-1.3,12.9H2131.1z
				 M2200.7,598.4c-0.2-19.4-14.3-31.2-32.4-31.2s-32.8,12.5-36.6,31.2H2200.7z"/>
			<path class="st5" d="M2328.7,554l-51.1,111.1h-6.2L2220.1,554h18.3l36.2,81.9l35.9-81.9H2328.7z"/>
			<path class="st5" d="M2346.6,613.6c2,21.4,18.5,35.7,39.9,35.7c12.3,0,23.4-4.9,33.3-14.7l10,11.6c-11.4,11.8-26.3,19-43.5,19
				c-32.4,0-57.6-24.8-57.6-56.7c0-31.5,24.5-56.9,55.6-56.9c28.1,0,49.5,20.3,49.5,49.1c0,4.2-0.4,8.5-1.3,12.9H2346.6z
				 M2416.3,598.4c-0.2-19.4-14.3-31.2-32.4-31.2s-32.8,12.5-36.6,31.2H2416.3z"/>
			<path class="st5" d="M2544.4,662.7h-17.2v-66.3c0-17.2-10.3-29-27-29s-28.6,12.1-28.6,29v66.3h-17.2V554h16.1v11.6
				c8-8.9,19.9-14.1,33.5-14.1c25.2,0,40.4,17.2,40.4,42.8V662.7z"/>
			<path class="st5" d="M2628.1,662.7c-6.9,1.6-12.9,2.5-18.1,2.5c-22.5,0-36.6-11.4-36.6-35.3v-60.5h-18.3V554h18.3v-29.7h17.2V554
				h33.9v15.4h-33.9v59.4c0,15.4,8,20.8,23,20.8c4.2,0,8.9-0.4,14.5-1.3V662.7z"/>
			<path class="st5" d="M2647.3,632.6c10.5,10.7,19,16.7,31.2,16.7c11.8,0,20.8-5.8,20.8-15.4c0-8.7-5.6-12.1-19-17.4l-10.5-4.5
				c-18.1-7.4-27-15.6-27-30.1c0-19,15.8-30.4,36.6-30.4c15.2,0,27.5,6.5,36.4,17.2l-10.5,10.7c-7.4-7.4-16.7-12.1-26.8-12.1
				c-10.7,0-18.1,4.9-18.1,13.6c0,6.9,4.5,10.3,17.6,15.8l10,4.2c20.3,8.7,28.8,17.2,28.8,32.1c0,10-3.8,18.1-11.2,23.7
				c-7.4,5.6-16.3,8.3-27,8.3c-18.1,0-32.8-8.7-42.4-21.2L2647.3,632.6z"/>
		</g>
	</g>
</g>
</svg>
