<svg xmlns="http://www.w3.org/2000/svg" xmlns:xlink="http://www.w3.org/1999/xlink" width="500" zoomAndPan="magnify" viewBox="0 0 375 374.999991" height="500" preserveAspectRatio="xMidYMid meet" version="1.0"><defs><clipPath id="ab6cf569b4"><path d="M 160.714844 211.503906 L 310.714844 211.503906 L 310.714844 294.753906 L 160.714844 294.753906 Z M 160.714844 211.503906 " clip-rule="nonzero"/></clipPath><clipPath id="e5d2d70e51"><path d="M 62.09375 211.503906 L 212.09375 211.503906 L 212.09375 294.753906 L 62.09375 294.753906 Z M 62.09375 211.503906 " clip-rule="nonzero"/></clipPath></defs><path fill="#000000" d="M 87.804688 219.464844 C 89.894531 219.464844 91.707031 220.453125 92.710938 222.007812 L 91.667969 222.832031 C 90.761719 221.527344 89.453125 220.753906 87.820312 220.753906 C 85.152344 220.753906 83.117188 222.832031 83.117188 225.566406 C 83.117188 228.304688 85.152344 230.378906 87.820312 230.378906 C 89.441406 230.378906 90.761719 229.609375 91.667969 228.304688 L 92.710938 229.128906 C 91.722656 230.683594 89.90625 231.671875 87.804688 231.671875 C 84.464844 231.726562 81.59375 228.949219 81.660156 225.566406 C 81.59375 222.171875 84.453125 219.410156 87.804688 219.464844 Z M 87.804688 219.464844 " fill-opacity="1" fill-rule="nonzero"/><path fill="#000000" d="M 104.132812 231.46875 L 100.464844 226.515625 L 97.933594 226.515625 L 97.933594 231.46875 L 96.53125 231.46875 L 96.53125 219.65625 L 100.683594 219.65625 C 102.980469 219.65625 104.460938 221.085938 104.460938 223.078125 C 104.460938 224.675781 103.527344 225.910156 101.976562 226.351562 L 105.753906 231.46875 Z M 97.949219 225.253906 L 100.65625 225.253906 C 102.179688 225.253906 103.035156 224.398438 103.035156 223.078125 C 103.035156 221.785156 102.152344 220.894531 100.65625 220.894531 L 97.949219 220.894531 Z M 97.949219 225.253906 " fill-opacity="1" fill-rule="nonzero"/><path fill="#000000" d="M 109.011719 219.65625 L 116.585938 219.65625 L 116.585938 220.90625 L 110.414062 220.90625 L 110.414062 224.523438 L 115.140625 224.523438 L 115.140625 225.773438 L 110.414062 225.773438 L 110.414062 230.214844 L 116.804688 230.214844 L 116.804688 231.46875 L 109.027344 231.46875 L 109.027344 219.65625 Z M 109.011719 219.65625 " fill-opacity="1" fill-rule="nonzero"/><path fill="#000000" d="M 127.953125 229.074219 L 122.164062 229.074219 L 121.160156 231.46875 L 119.691406 231.46875 L 124.804688 219.449219 L 125.328125 219.449219 L 130.4375 231.46875 L 128.953125 231.46875 Z M 125.066406 221.992188 L 122.699219 227.808594 L 127.429688 227.808594 Z M 125.066406 221.992188 " fill-opacity="1" fill-rule="nonzero"/><path fill="#000000" d="M 135.03125 220.90625 L 130.878906 220.90625 L 130.878906 219.65625 L 140.597656 219.65625 L 140.597656 220.90625 L 136.429688 220.90625 L 136.429688 231.46875 L 135.03125 231.46875 Z M 135.03125 220.90625 " fill-opacity="1" fill-rule="nonzero"/><path fill="#000000" d="M 143.8125 219.65625 L 145.214844 219.65625 L 145.214844 231.46875 L 143.8125 231.46875 Z M 143.8125 219.65625 " fill-opacity="1" fill-rule="nonzero"/><path fill="#000000" d="M 159.234375 219.65625 L 154.121094 231.671875 L 153.597656 231.671875 L 148.484375 219.65625 L 150.023438 219.65625 L 153.871094 228.921875 L 157.707031 219.65625 Z M 159.234375 219.65625 " fill-opacity="1" fill-rule="nonzero"/><path fill="#000000" d="M 162.546875 219.65625 L 170.117188 219.65625 L 170.117188 220.90625 L 163.945312 220.90625 L 163.945312 224.523438 L 168.675781 224.523438 L 168.675781 225.773438 L 163.945312 225.773438 L 163.945312 230.214844 L 170.335938 230.214844 L 170.335938 231.46875 L 162.558594 231.46875 L 162.558594 219.65625 Z M 162.546875 219.65625 " fill-opacity="1" fill-rule="nonzero"/><path fill="#000000" d="M 192.121094 219.464844 L 192.121094 231.46875 L 190.71875 231.46875 L 190.71875 222.996094 L 186.941406 228.113281 L 186.445312 228.113281 L 182.652344 222.957031 L 182.652344 231.46875 L 181.25 231.46875 L 181.25 219.449219 L 181.746094 219.449219 L 186.664062 226.269531 L 191.628906 219.449219 L 192.121094 219.449219 Z M 192.121094 219.464844 " fill-opacity="1" fill-rule="nonzero"/><path fill="#000000" d="M 203.695312 229.074219 L 197.894531 229.074219 L 196.890625 231.46875 L 195.421875 231.46875 L 200.535156 219.449219 L 201.054688 219.449219 L 206.167969 231.46875 L 204.683594 231.46875 Z M 200.792969 221.992188 L 198.429688 227.808594 L 203.160156 227.808594 Z M 200.792969 221.992188 " fill-opacity="1" fill-rule="nonzero"/><path fill="#000000" d="M 217.082031 231.46875 L 213.410156 226.503906 L 210.882812 226.503906 L 210.882812 231.46875 L 209.480469 231.46875 L 209.480469 219.65625 L 213.632812 219.65625 C 215.925781 219.65625 217.410156 221.085938 217.410156 223.078125 C 217.410156 224.675781 216.476562 225.910156 214.921875 226.351562 L 218.703125 231.46875 Z M 210.894531 225.253906 L 213.605469 225.253906 C 215.128906 225.253906 215.980469 224.398438 215.980469 223.078125 C 215.980469 221.785156 215.101562 220.894531 213.605469 220.894531 L 210.894531 220.894531 Z M 210.894531 225.253906 " fill-opacity="1" fill-rule="nonzero"/><path fill="#000000" d="M 221.960938 219.65625 L 223.363281 219.65625 L 223.363281 231.46875 L 221.960938 231.46875 Z M 231.101562 231.46875 L 229.328125 231.46875 L 223.511719 225.128906 L 228.832031 219.65625 L 230.617188 219.65625 L 225.339844 225.128906 Z M 231.101562 231.46875 " fill-opacity="1" fill-rule="nonzero"/><path fill="#000000" d="M 234.414062 219.65625 L 241.984375 219.65625 L 241.984375 220.90625 L 235.8125 220.90625 L 235.8125 224.523438 L 240.542969 224.523438 L 240.542969 225.773438 L 235.8125 225.773438 L 235.8125 230.214844 L 242.203125 230.214844 L 242.203125 231.46875 L 234.425781 231.46875 L 234.425781 219.65625 Z M 234.414062 219.65625 " fill-opacity="1" fill-rule="nonzero"/><path fill="#000000" d="M 249.023438 220.90625 L 244.871094 220.90625 L 244.871094 219.65625 L 254.589844 219.65625 L 254.589844 220.90625 L 250.425781 220.90625 L 250.425781 231.46875 L 249.023438 231.46875 Z M 249.023438 220.90625 " fill-opacity="1" fill-rule="nonzero"/><path fill="#000000" d="M 257.789062 219.65625 L 259.191406 219.65625 L 259.191406 231.46875 L 257.789062 231.46875 Z M 257.789062 219.65625 " fill-opacity="1" fill-rule="nonzero"/><path fill="#000000" d="M 273.308594 219.65625 L 273.308594 231.671875 L 272.8125 231.671875 L 265.296875 222.613281 L 265.296875 231.46875 L 263.894531 231.46875 L 263.894531 219.449219 L 264.386719 219.449219 L 271.90625 228.523438 L 271.90625 219.640625 L 273.308594 219.640625 Z M 273.308594 219.65625 " fill-opacity="1" fill-rule="nonzero"/><path fill="#000000" d="M 283.4375 219.464844 C 285.445312 219.464844 287.160156 220.355469 288.246094 221.882812 L 287.1875 222.707031 C 286.28125 221.472656 285.003906 220.753906 283.4375 220.753906 C 280.757812 220.699219 278.695312 222.886719 278.75 225.554688 C 278.695312 228.261719 280.785156 230.476562 283.503906 230.421875 C 285.222656 230.421875 286.640625 229.597656 287.4375 228.304688 L 287.4375 226.710938 L 283.410156 226.710938 L 283.410156 225.457031 L 288.824219 225.457031 L 288.824219 228.605469 C 288.300781 229.542969 287.558594 230.285156 286.585938 230.847656 C 285.636719 231.398438 284.578125 231.671875 283.421875 231.671875 C 280.042969 231.726562 277.238281 228.949219 277.28125 225.566406 C 277.238281 222.171875 280.054688 219.410156 283.4375 219.464844 Z M 283.4375 219.464844 " fill-opacity="1" fill-rule="nonzero"/><path fill="#000000" d="M 121.902344 174.445312 C 121.929688 172.660156 121.820312 170.925781 121.574219 169.25 L 102.980469 165.671875 C 104.503906 168.246094 105.261719 171.199219 105.261719 174.570312 C 105.261719 179.230469 103.789062 183.09375 100.863281 186.148438 C 97.933594 189.199219 94.25 190.726562 89.839844 190.726562 C 85.332031 190.726562 81.648438 189.199219 78.746094 186.148438 C 75.847656 183.09375 74.40625 179.230469 74.40625 174.570312 C 74.40625 169.824219 75.847656 165.90625 78.746094 162.8125 C 79.257812 162.261719 79.792969 161.769531 80.355469 161.328125 L 62.585938 157.90625 C 62.734375 157.671875 62.902344 157.421875 63.066406 157.191406 C 59.507812 162.277344 57.773438 168.039062 57.898438 174.445312 C 57.734375 182.972656 60.8125 190.339844 67.121094 196.570312 C 73.429688 202.796875 80.960938 205.835938 89.714844 205.671875 C 98.46875 205.835938 106.070312 202.796875 112.503906 196.570312 C 118.933594 190.339844 122.070312 182.972656 121.902344 174.445312 Z M 121.902344 174.445312 " fill-opacity="1" fill-rule="nonzero"/><path fill="#000000" d="M 274.75 198.785156 L 258.492188 195.660156 L 258.492188 195.648438 L 258.476562 195.648438 L 258.476562 205.617188 L 274.765625 205.617188 L 274.765625 198.785156 Z M 274.75 198.785156 " fill-opacity="1" fill-rule="nonzero"/><path fill="#000000" d="M 306.527344 149.832031 C 302.472656 145.488281 296.988281 143.328125 290.074219 143.328125 C 281.882812 143.328125 275.246094 146.191406 270.1875 151.894531 C 266.175781 146.191406 260.265625 143.328125 252.472656 143.328125 C 245.394531 143.328125 239.773438 145.542969 235.59375 149.957031 L 235.59375 144.648438 L 220.640625 144.648438 L 220.640625 152.445312 L 240.597656 160.542969 C 242.519531 158.878906 244.941406 158.042969 247.894531 158.042969 C 251.109375 158.042969 253.679688 159.085938 255.605469 161.175781 C 257.1875 162.894531 258.121094 165.097656 258.410156 167.777344 C 258.410156 167.777344 258.410156 167.777344 258.410156 167.761719 L 274.765625 174.40625 L 274.777344 174.40625 L 274.777344 169.234375 C 274.777344 165.933594 275.808594 163.238281 277.855469 161.148438 C 279.90625 159.058594 282.542969 158.015625 285.746094 158.015625 C 288.960938 158.015625 291.53125 159.058594 293.457031 161.148438 C 295.378906 163.238281 296.355469 166.058594 296.355469 169.59375 L 296.355469 180.136719 C 296.355469 180.136719 305.332031 182.449219 306.84375 182.929688 C 309.605469 183.6875 311.53125 184.964844 312.628906 186.367188 L 312.628906 167.324219 C 312.617188 160.007812 310.582031 154.179688 306.527344 149.832031 Z M 306.527344 149.832031 " fill-opacity="1" fill-rule="nonzero"/><path fill="#000000" d="M 219.363281 188.113281 L 202.5 184.882812 C 202.15625 185.320312 201.796875 185.734375 201.414062 186.148438 C 198.472656 189.199219 194.800781 190.726562 190.375 190.726562 C 185.882812 190.726562 182.183594 189.199219 179.285156 186.148438 C 177.527344 184.289062 176.300781 182.144531 175.617188 179.683594 L 160.332031 176.742188 L 159.714844 176.617188 L 121.617188 169.277344 C 122.125 170.128906 122.714844 170.941406 123.414062 171.683594 C 125.984375 174.460938 130.121094 177.003906 135.828125 179.339844 L 142.21875 181.996094 C 144.621094 183.039062 146.257812 183.90625 147.097656 184.59375 C 147.933594 185.28125 148.359375 186.214844 148.359375 187.425781 C 148.359375 189.035156 147.660156 190.257812 146.257812 191.109375 C 144.855469 191.949219 143.027344 192.375 140.773438 192.375 C 135.304688 192.375 130.191406 190.160156 125.449219 185.722656 L 118.496094 197.296875 C 124.046875 202.9375 131.402344 205.753906 140.539062 205.753906 C 147.289062 205.753906 152.839844 204.0625 157.171875 200.695312 C 160.375 198.246094 162.40625 195.140625 163.300781 191.34375 C 164.523438 193.171875 165.980469 194.917969 167.65625 196.582031 C 173.964844 202.8125 181.496094 205.851562 190.265625 205.6875 C 199.019531 205.851562 206.621094 202.8125 213.054688 196.582031 C 215.746094 193.972656 217.863281 191.152344 219.402344 188.128906 Z M 219.363281 188.113281 " fill-opacity="1" fill-rule="nonzero"/><path fill="#000000" d="M 220.628906 188.359375 L 220.628906 205.617188 L 236.914062 205.617188 L 236.914062 191.496094 L 229.890625 190.132812 Z M 220.628906 188.359375 " fill-opacity="1" fill-rule="nonzero"/><path fill="#ffdd00" d="M 310.277344 202.070312 C 311.832031 200.542969 312.617188 198.617188 312.617188 196.292969 C 312.617188 193.972656 311.832031 192.03125 310.277344 190.464844 C 308.726562 188.898438 306.773438 188.128906 304.4375 188.128906 C 302.046875 188.128906 300.09375 188.898438 298.554688 190.4375 C 297.015625 191.976562 296.261719 193.929688 296.261719 196.292969 C 296.261719 198.617188 297.03125 200.542969 298.554688 202.070312 C 300.09375 203.597656 302.046875 204.351562 304.4375 204.351562 C 306.773438 204.351562 308.726562 203.597656 310.277344 202.070312 Z M 310.277344 202.070312 " fill-opacity="1" fill-rule="nonzero"/><path fill="#bcbbbb" d="M 220.640625 163.570312 C 219.101562 159.5 216.601562 155.746094 213.09375 152.363281 C 206.703125 146.175781 199.144531 143.152344 190.375 143.316406 C 181.636719 143.164062 174.0625 146.175781 167.726562 152.363281 C 161.363281 158.550781 158.269531 165.921875 158.449219 174.433594 L 158.449219 174.871094 C 155.808594 172.617188 152.003906 170.472656 147.054688 168.476562 L 141.28125 166.070312 C 138.851562 165.097656 137.214844 164.257812 136.320312 163.542969 C 135.457031 162.800781 134.988281 161.878906 134.988281 160.75 C 134.988281 157.933594 137.132812 156.53125 141.378906 156.53125 C 146.285156 156.53125 150.765625 158.425781 154.78125 162.207031 L 161.582031 150.78125 C 156.320312 145.761719 149.625 143.261719 141.515625 143.261719 C 134.917969 143.261719 129.628906 144.871094 125.613281 148.046875 C 121.574219 151.222656 119.582031 155.566406 119.582031 161.109375 C 119.582031 161.492188 119.582031 161.90625 119.609375 162.261719 C 118.027344 158.6875 115.691406 155.386719 112.585938 152.363281 C 106.195312 146.175781 98.636719 143.152344 89.867188 143.316406 C 81.097656 143.164062 73.550781 146.175781 67.214844 152.363281 C 65.429688 154.097656 63.863281 155.9375 62.613281 157.890625 L 80.398438 161.316406 C 83.007812 159.195312 86.140625 158.136719 89.851562 158.136719 C 94.277344 158.136719 97.960938 159.71875 100.902344 162.839844 C 101.714844 163.707031 102.414062 164.65625 102.992188 165.660156 L 121.601562 169.234375 L 121.65625 169.261719 L 158.492188 176.34375 L 160.359375 176.726562 L 175.644531 179.671875 C 175.203125 178.089844 174.984375 176.371094 174.984375 174.554688 C 174.984375 169.796875 176.414062 165.894531 179.300781 162.785156 C 182.210938 159.691406 185.894531 158.125 190.390625 158.125 C 194.816406 158.125 198.5 159.707031 201.441406 162.828125 C 204.382812 165.976562 205.839844 169.851562 205.839844 174.542969 C 205.839844 178.585938 204.738281 182.007812 202.511719 184.855469 L 219.390625 188.097656 C 219.898438 187.179688 220.3125 186.203125 220.667969 185.238281 L 220.667969 188.332031 L 236.953125 191.480469 L 236.953125 169.605469 C 236.953125 166.070312 237.957031 163.265625 239.964844 161.164062 C 240.171875 160.929688 240.40625 160.722656 240.625 160.542969 L 220.65625 152.433594 L 220.65625 163.570312 Z M 220.640625 163.570312 " fill-opacity="1" fill-rule="nonzero"/><path fill="#bcbbbb" d="M 258.394531 167.761719 C 258.476562 168.355469 258.492188 168.960938 258.492188 169.605469 L 258.492188 195.660156 L 274.75 198.785156 L 274.75 174.417969 Z M 258.394531 167.761719 " fill-opacity="1" fill-rule="nonzero"/><g clip-path="url(#ab6cf569b4)"><path fill="#ffffff" d="M 160.789062 211.503906 L 310.640625 211.503906 L 310.640625 294.753906 L 160.789062 294.753906 Z M 160.789062 211.503906 " fill-opacity="1" fill-rule="nonzero"/></g><g clip-path="url(#e5d2d70e51)"><path fill="#ffffff" d="M 62.167969 211.503906 L 212.019531 211.503906 L 212.019531 294.753906 L 62.167969 294.753906 Z M 62.167969 211.503906 " fill-opacity="1" fill-rule="nonzero"/></g></svg>